<svg width="128" height="128" viewBox="0 0 128 128" fill="none" xmlns="http://www.w3.org/2000/svg">
<g filter="url(#filter0_f_509_11)">
<circle cx="64" cy="64" r="60" fill="#3152C6"/>
</g>
<circle cx="64" cy="64" r="55" fill="black"/>
<path d="M37.6562 76V35H45.2188V83H38.375L37.6562 76ZM15.6562 66.4688V65.8125C15.6562 63.25 15.9583 60.9167 16.5625 58.8125C17.1667 56.6875 18.0417 54.8646 19.1875 53.3438C20.3333 51.8021 21.7292 50.625 23.375 49.8125C25.0208 48.9792 26.875 48.5625 28.9375 48.5625C30.9792 48.5625 32.7708 48.9583 34.3125 49.75C35.8542 50.5417 37.1667 51.6771 38.25 53.1562C39.3333 54.6146 40.1979 56.3646 40.8438 58.4062C41.4896 60.4271 41.9479 62.6771 42.2188 65.1562V67.25C41.9479 69.6667 41.4896 71.875 40.8438 73.875C40.1979 75.875 39.3333 77.6042 38.25 79.0625C37.1667 80.5208 35.8438 81.6458 34.2812 82.4375C32.7396 83.2292 30.9375 83.625 28.875 83.625C26.8333 83.625 24.9896 83.1979 23.3438 82.3438C21.7188 81.4896 20.3333 80.2917 19.1875 78.75C18.0417 77.2083 17.1667 75.3958 16.5625 73.3125C15.9583 71.2083 15.6562 68.9271 15.6562 66.4688ZM23.1875 65.8125V66.4688C23.1875 68.0104 23.3229 69.4479 23.5938 70.7812C23.8854 72.1146 24.3333 73.2917 24.9375 74.3125C25.5417 75.3125 26.3229 76.1042 27.2812 76.6875C28.2604 77.25 29.4271 77.5312 30.7812 77.5312C32.4896 77.5312 33.8958 77.1562 35 76.4062C36.1042 75.6562 36.9688 74.6458 37.5938 73.375C38.2396 72.0833 38.6771 70.6458 38.9062 69.0625V63.4062C38.7812 62.1771 38.5208 61.0312 38.125 59.9688C37.75 58.9062 37.2396 57.9792 36.5938 57.1875C35.9479 56.375 35.1458 55.75 34.1875 55.3125C33.25 54.8542 32.1354 54.625 30.8438 54.625C29.4688 54.625 28.3021 54.9167 27.3438 55.5C26.3854 56.0833 25.5938 56.8854 24.9688 57.9062C24.3646 58.9271 23.9167 60.1146 23.625 61.4688C23.3333 62.8229 23.1875 64.2708 23.1875 65.8125ZM68 83.625C65.5 83.625 63.2396 83.2188 61.2188 82.4062C59.2188 81.5729 57.5104 80.4167 56.0938 78.9375C54.6979 77.4583 53.625 75.7188 52.875 73.7188C52.125 71.7188 51.75 69.5625 51.75 67.25V66C51.75 63.3542 52.1354 60.9583 52.9062 58.8125C53.6771 56.6667 54.75 54.8333 56.125 53.3125C57.5 51.7708 59.125 50.5938 61 49.7812C62.875 48.9688 64.9062 48.5625 67.0938 48.5625C69.5104 48.5625 71.625 48.9688 73.4375 49.7812C75.25 50.5938 76.75 51.7396 77.9375 53.2188C79.1458 54.6771 80.0417 56.4167 80.625 58.4375C81.2292 60.4583 81.5312 62.6875 81.5312 65.125V68.3438H55.4062V62.9375H74.0938V62.3438C74.0521 60.9896 73.7812 59.7188 73.2812 58.5312C72.8021 57.3438 72.0625 56.3854 71.0625 55.6562C70.0625 54.9271 68.7292 54.5625 67.0625 54.5625C65.8125 54.5625 64.6979 54.8333 63.7188 55.375C62.7604 55.8958 61.9583 56.6562 61.3125 57.6562C60.6667 58.6562 60.1667 59.8646 59.8125 61.2812C59.4792 62.6771 59.3125 64.25 59.3125 66V67.25C59.3125 68.7292 59.5104 70.1042 59.9062 71.375C60.3229 72.625 60.9271 73.7188 61.7188 74.6562C62.5104 75.5938 63.4688 76.3333 64.5938 76.875C65.7188 77.3958 67 77.6562 68.4375 77.6562C70.25 77.6562 71.8646 77.2917 73.2812 76.5625C74.6979 75.8333 75.9271 74.8021 76.9688 73.4688L80.9375 77.3125C80.2083 78.375 79.2604 79.3958 78.0938 80.375C76.9271 81.3333 75.5 82.1146 73.8125 82.7188C72.1458 83.3229 70.2083 83.625 68 83.625ZM97.9688 77.0312L106.25 49.1875H114.062L102.312 83H97.4375L97.9688 77.0312ZM91.625 49.1875L100.062 77.1562L100.469 83H95.5938L83.7812 49.1875H91.625Z" fill="white"/>
<defs>
<filter id="filter0_f_509_11" x="0" y="0" width="128" height="128" filterUnits="userSpaceOnUse" color-interpolation-filters="sRGB">
<feFlood flood-opacity="0" result="BackgroundImageFix"/>
<feBlend mode="normal" in="SourceGraphic" in2="BackgroundImageFix" result="shape"/>
<feGaussianBlur stdDeviation="2" result="effect1_foregroundBlur_509_11"/>
</filter>
</defs>
</svg>