<?xml version="1.0" standalone="no"?>
<!DOCTYPE svg PUBLIC "-//W3C//DTD SVG 20010904//EN"
 "http://www.w3.org/TR/2001/REC-SVG-20010904/DTD/svg10.dtd">
<svg version="1.0" xmlns="http://www.w3.org/2000/svg"
 width="172.000000pt" height="172.000000pt" viewBox="0 0 172.000000 172.000000"
 preserveAspectRatio="xMidYMid meet">
<metadata>
Created by potrace 1.14, written by Peter Selinger 2001-2017
</metadata>
<g transform="translate(0.000000,172.000000) scale(0.100000,-0.100000)"
fill="#000000" stroke="none">
<path d="M939 1323 c-6 -16 -28 -80 -49 -143 -21 -63 -91 -270 -154 -458 -64
-189 -116 -347 -116 -351 0 -4 29 -8 65 -9 36 -1 65 -1 65 1 0 2 74 224 165
492 91 268 165 489 165 491 0 2 -29 4 -65 4 -62 0 -66 -1 -76 -27z"/>
<path d="M425 1079 c-60 -26 -130 -56 -154 -66 -24 -10 -94 -39 -155 -65
l-111 -47 0 -66 c-1 -36 2 -69 5 -74 5 -7 491 -216 519 -223 12 -2 15 13 16
79 l0 82 -172 62 c-95 34 -173 65 -173 68 0 5 56 27 255 98 39 13 74 29 80 34
9 9 15 158 5 163 -3 2 -54 -19 -115 -45z"/>
<path d="M1172 1043 c3 -83 4 -87 28 -94 14 -4 95 -32 180 -62 150 -53 154
-56 125 -67 -54 -21 -300 -112 -317 -117 -15 -5 -18 -18 -18 -89 0 -75 2 -83
18 -77 36 13 517 215 522 220 2 2 5 35 6 73 l2 68 -51 22 c-29 13 -70 30 -92
40 -22 10 -107 46 -190 80 -82 35 -165 69 -183 77 l-33 14 3 -88z"/>
</g>
</svg>
